<svg xmlns="http://www.w3.org/2000/svg" width="512" height="512" viewBox="0 0 512 512"><rect width="100%" height="100%" fill="#0d6efd"/><path fill="#ffffff" d="M117.425 225.27v61.46h-11.47v-61.46zm46.07 23.25-2.76 3.83q-.47.59-.91.93-.45.34-1.3.34-.81 0-1.57-.49-.77-.49-1.83-1.1-1.06-.62-2.53-1.11-1.46-.49-3.63-.49-2.76 0-4.85 1-2.08 1-3.46 2.87t-2.06 4.53q-.68 2.65-.68 6.01 0 3.49.74 6.21.75 2.72 2.15 4.57 1.4 1.84 3.4 2.8t4.5.96q2.51 0 4.06-.62t2.62-1.36q1.06-.74 1.85-1.36.78-.62 1.76-.62 1.27 0 1.91.98l3.02 3.83q-1.74 2.04-3.78 3.42t-4.23 2.21-4.51 1.17q-2.31.34-4.61.34-4.04 0-7.61-1.51t-6.24-4.4q-2.68-2.89-4.23-7.08-1.55-4.18-1.55-9.54 0-4.8 1.38-8.9t4.06-7.1q2.67-3 6.63-4.7 3.95-1.7 9.09-1.7 4.89 0 8.57 1.58 3.67 1.57 6.6 4.5m26.27-6.08q4.84 0 8.82 1.58 3.97 1.57 6.8 4.46 2.82 2.89 4.35 7.05 1.53 4.17 1.53 9.31 0 5.19-1.53 9.35-1.53 4.17-4.35 7.1-2.83 2.93-6.8 4.5-3.98 1.58-8.82 1.58-4.89 0-8.88-1.58-4-1.57-6.82-4.5-2.83-2.93-4.38-7.1-1.55-4.16-1.55-9.35 0-5.14 1.55-9.31 1.55-4.16 4.38-7.05 2.82-2.89 6.82-4.46 3.99-1.58 8.88-1.58m0 36.85q5.44 0 8.05-3.65 2.62-3.66 2.62-10.71 0-7.06-2.62-10.75-2.61-3.7-8.05-3.7-5.53 0-8.18 3.72-2.66 3.71-2.66 10.73 0 7.01 2.66 10.69 2.65 3.67 8.18 3.67m38.63-34.25.72 3.44q1.32-1.32 2.79-2.44 1.46-1.13 3.1-1.92 1.64-.78 3.51-1.23t4.08-.45q3.57 0 6.33 1.22 2.76 1.21 4.61 3.4t2.81 5.22q.95 3.04.95 6.7v27.75h-10.5v-27.75q0-4-1.82-6.19-1.83-2.19-5.57-2.19-2.72 0-5.1 1.24-2.38 1.23-4.51 3.35v31.54h-10.49v-43.61h6.41q2.04 0 2.68 1.92m53.08-10.25-2.16 12.8q2.04-.43 3.91-.62t3.61-.19q4.84 0 8.54 1.44 3.7 1.45 6.21 4 2.5 2.55 3.78 5.97 1.27 3.42 1.27 7.37 0 4.89-1.72 8.93t-4.78 6.91q-3.06 2.86-7.24 4.44-4.19 1.57-9.12 1.57-2.89 0-5.48-.59-2.6-.6-4.87-1.6t-4.21-2.29q-1.93-1.3-3.46-2.75l3.23-4.46q1.02-1.44 2.68-1.44 1.06 0 2.16.68 1.11.68 2.53 1.48 1.43.81 3.36 1.49t4.65.68q2.89 0 5.1-.93 2.21-.94 3.68-2.62t2.21-3.99q.74-2.32.74-5.04 0-5.01-2.91-7.84t-8.6-2.83q-4.38 0-8.97 1.62l-6.55-1.87 5.1-29.84h30.35v4.47q0 2.25-1.4 3.65-1.41 1.4-4.76 1.4zm62.82 44.08h11.05v7.86h-34v-7.86h12.45v-35.83q0-2.13.13-4.38l-8.84 7.4q-.77.59-1.51.74t-1.4.02-1.17-.44q-.51-.32-.77-.7l-3.31-4.55 18.74-15.94h8.63zm42.29-1.92h15.76q1.7 0 2.7.96t1 2.53v6.29h-42.16v-3.49q0-1.06.45-2.23.44-1.17 1.42-2.1l18.66-18.7q2.34-2.38 4.19-4.55 1.84-2.16 3.08-4.29 1.23-2.12 1.89-4.31t.66-4.62q0-2.21-.64-3.88-.64-1.68-1.81-2.83t-2.8-1.72q-1.64-.58-3.68-.58-1.87 0-3.46.54-1.6.53-2.83 1.48-1.23.96-2.08 2.23-.85 1.28-1.28 2.81-.72 1.95-1.87 2.59-1.14.64-3.31.3l-5.53-.98q.64-4.42 2.47-7.75 1.83-3.34 4.57-5.57t6.29-3.36 7.63-1.13q4.25 0 7.77 1.26 3.53 1.25 6.04 3.55 2.51 2.29 3.91 5.52t1.4 7.18q0 3.4-1 6.29-.99 2.89-2.67 5.53-1.68 2.63-3.94 5.1-2.25 2.46-4.71 5.01l-13.86 14.16q2-.6 3.98-.92 1.97-.32 3.76-.32"/></svg>