<svg xmlns="http://www.w3.org/2000/svg" width="192" height="192" viewBox="0 0 192 192"><rect width="100%" height="100%" fill="#0d6efd"/><path fill="#ffffff" d="M43.83 84.435v23.14h-4.32v-23.14zm17.35 8.76-1.04 1.44q-.18.22-.35.35-.16.13-.48.13-.31 0-.6-.19-.28-.18-.68-.41-.4-.24-.96-.42-.55-.18-1.36-.18-1.04 0-1.83.37-.78.38-1.3 1.08-.52.71-.78 1.71-.25 1-.25 2.26 0 1.31.28 2.34.28 1.02.8 1.72.53.69 1.28 1.05.76.36 1.7.36t1.53-.23q.58-.23.98-.51t.7-.51q.29-.24.66-.24.48 0 .72.37l1.14 1.44q-.66.77-1.43 1.29-.76.52-1.59.83-.82.31-1.69.44-.88.13-1.74.13-1.52 0-2.86-.57-1.35-.57-2.36-1.65-1-1.09-1.59-2.67-.58-1.57-.58-3.59 0-1.81.52-3.35.52-1.55 1.53-2.67 1-1.13 2.49-1.77t3.43-.64q1.84 0 3.22.59t2.49 1.7m9.89-2.29q1.82 0 3.32.59 1.49.59 2.56 1.68 1.06 1.09 1.64 2.66.57 1.56.57 3.5 0 1.95-.57 3.52-.58 1.57-1.64 2.67-1.07 1.11-2.56 1.7-1.5.59-3.32.59-1.84 0-3.35-.59-1.5-.59-2.57-1.7-1.06-1.1-1.64-2.67-.59-1.57-.59-3.52 0-1.94.59-3.5.58-1.57 1.64-2.66 1.07-1.09 2.57-1.68 1.51-.59 3.35-.59m0 13.87q2.04 0 3.03-1.38.98-1.37.98-4.03 0-2.65-.98-4.05-.99-1.39-3.03-1.39-2.08 0-3.08 1.4t-1 4.04 1 4.03q1 1.38 3.08 1.38m14.54-12.9.27 1.3q.5-.5 1.05-.92t1.17-.72q.61-.3 1.32-.46.7-.17 1.53-.17 1.35 0 2.39.45 1.04.46 1.73 1.28.7.83 1.06 1.97.36 1.15.36 2.52v10.45h-3.95v-10.45q0-1.5-.69-2.33-.69-.82-2.1-.82-1.02 0-1.92.46-.89.47-1.69 1.27v11.87h-3.95v-16.42h2.41q.77 0 1.01.72m25.07 12.74h4.16v2.96h-12.8v-2.96h4.69v-13.49q0-.8.05-1.65l-3.33 2.79q-.29.22-.57.28-.28.05-.53.01-.24-.05-.44-.17-.19-.12-.28-.27l-1.25-1.71 7.05-6h3.25zm11.44-13.23q0 1.93 1 2.95t2.84 1.02q.96 0 1.71-.31.76-.3 1.27-.83t.77-1.25q.27-.72.27-1.55 0-.94-.29-1.69-.29-.74-.82-1.25-.52-.52-1.25-.79t-1.59-.27q-.9 0-1.62.3-.72.29-1.23.82t-.79 1.26q-.27.72-.27 1.59m-1.93 16.19 7.18-8.98q.27-.33.51-.65t.47-.64q-.8.51-1.76.77-.96.27-2.02.27-1.2 0-2.35-.42-1.15-.41-2.05-1.25t-1.45-2.08-.55-2.91q0-1.55.58-2.91.57-1.36 1.61-2.38 1.04-1.03 2.5-1.62 1.45-.59 3.21-.59 1.78 0 3.2.56 1.41.56 2.41 1.57 1 1 1.54 2.41.53 1.41.53 3.09 0 1.07-.18 2.03t-.52 1.85-.82 1.74q-.48.84-1.07 1.68l-5.29 7.55q-.28.38-.82.65-.54.26-1.23.26zm24.97-3.68h5.94q.64 0 1.01.36.38.36.38.95v2.37h-15.87v-1.31q0-.4.17-.84.16-.44.53-.79l7.03-7.04q.88-.9 1.57-1.72.7-.81 1.16-1.61.47-.8.71-1.63.25-.82.25-1.73 0-.83-.24-1.47-.24-.63-.68-1.06t-1.05-.65q-.62-.21-1.39-.21-.7 0-1.3.2t-1.07.56q-.46.36-.78.84t-.48 1.05q-.27.74-.7.98-.44.24-1.25.11l-2.08-.37q.24-1.66.93-2.92.68-1.25 1.72-2.09 1.03-.84 2.36-1.27 1.34-.42 2.88-.42 1.6 0 2.92.47 1.33.47 2.28 1.34.94.86 1.47 2.08.53 1.21.53 2.7 0 1.28-.38 2.37t-1.01 2.08-1.48 1.92-1.77 1.89l-5.22 5.32q.75-.22 1.5-.34.74-.12 1.41-.12"/></svg>